<svg width="57" height="56" viewBox="0 0 57 56" fill="none" xmlns="http://www.w3.org/2000/svg">
<circle cx="28.7891" cy="28" r="28" fill="#F4F7FE"/>
<g clip-path="url(#clip0_391_3762)">
<path d="M21.074 24.3136H21.3476C22.4013 24.3136 23.2634 25.1757 23.2634 26.2293V35.8082C23.2634 36.8618 22.4013 37.7239 21.3476 37.7239H21.074C20.0203 37.7239 19.1582 36.8618 19.1582 35.8082V26.2293C19.1582 25.1757 20.0203 24.3136 21.074 24.3136ZM28.737 18.5663C29.7907 18.5663 30.6528 19.4284 30.6528 20.482V35.8082C30.6528 36.8618 29.7907 37.7239 28.737 37.7239C27.6834 37.7239 26.8213 36.8618 26.8213 35.8082V20.482C26.8213 19.4284 27.6834 18.5663 28.737 18.5663ZM36.4001 29.5135C37.4537 29.5135 38.3158 30.3756 38.3158 31.4293V35.8082C38.3158 36.8618 37.4537 37.7239 36.4001 37.7239C35.3464 37.7239 34.4843 36.8618 34.4843 35.8082V31.4293C34.4843 30.3756 35.3464 29.5135 36.4001 29.5135Z" fill="#4318FF"/>
</g>
<defs>
<clipPath id="clip0_391_3762">
<rect width="32.8417" height="32.8417" fill="white" transform="translate(12.3164 11.7242)"/>
</clipPath>
</defs>
</svg>
